<svg width="282" height="160" viewBox="0 0 282 160" fill="none" xmlns="http://www.w3.org/2000/svg">
<rect x="-0.000488281" width="282" height="160" rx="15" fill="url(#paint0_linear_149_202)"/>
<path d="M31.7115 40H29.1915L23.1915 23.2H25.5915L30.4635 37.216L35.3115 23.2H37.7355L31.7115 40ZM40.077 25.816C39.677 25.816 39.341 25.68 39.069 25.408C38.797 25.136 38.661 24.808 38.661 24.424C38.661 24.04 38.797 23.712 39.069 23.44C39.341 23.152 39.677 23.008 40.077 23.008C40.461 23.008 40.789 23.152 41.061 23.44C41.333 23.712 41.469 24.04 41.469 24.424C41.469 24.808 41.333 25.136 41.061 25.408C40.789 25.68 40.461 25.816 40.077 25.816ZM41.109 40H39.021V28H41.109V40ZM46.071 31.24C46.071 32.008 46.863 32.608 48.447 33.04C49.039 33.168 49.535 33.304 49.935 33.448C50.351 33.576 50.799 33.776 51.279 34.048C51.775 34.32 52.151 34.68 52.407 35.128C52.663 35.576 52.791 36.104 52.791 36.712C52.791 37.8 52.367 38.672 51.519 39.328C50.671 39.984 49.599 40.312 48.303 40.312C47.151 40.312 46.151 40.064 45.303 39.568C44.471 39.056 43.879 38.368 43.527 37.504L45.327 36.472C45.519 37.048 45.879 37.504 46.407 37.84C46.935 38.176 47.567 38.344 48.303 38.344C49.023 38.344 49.599 38.208 50.031 37.936C50.463 37.664 50.679 37.256 50.679 36.712C50.679 35.896 49.887 35.304 48.303 34.936C47.775 34.792 47.375 34.68 47.103 34.6C46.831 34.52 46.455 34.376 45.975 34.168C45.511 33.96 45.159 33.744 44.919 33.52C44.679 33.28 44.455 32.968 44.247 32.584C44.055 32.184 43.959 31.744 43.959 31.264C43.959 30.224 44.359 29.368 45.159 28.696C45.975 28.024 46.991 27.688 48.207 27.688C49.183 27.688 50.047 27.912 50.799 28.36C51.567 28.792 52.143 29.4 52.527 30.184L50.775 31.168C50.343 30.144 49.487 29.632 48.207 29.632C47.599 29.632 47.087 29.776 46.671 30.064C46.271 30.352 46.071 30.744 46.071 31.24ZM64.8711 30.064V28H66.9591V40H64.8711V37.936C63.8471 39.52 62.3351 40.312 60.3351 40.312C58.6391 40.312 57.2071 39.704 56.0391 38.488C54.8551 37.256 54.2631 35.76 54.2631 34C54.2631 32.256 54.8551 30.768 56.0391 29.536C57.2231 28.304 58.6551 27.688 60.3351 27.688C62.3351 27.688 63.8471 28.48 64.8711 30.064ZM60.5991 38.296C61.8151 38.296 62.8311 37.888 63.6471 37.072C64.4631 36.224 64.8711 35.2 64.8711 34C64.8711 32.784 64.4631 31.768 63.6471 30.952C62.8311 30.12 61.8151 29.704 60.5991 29.704C59.3991 29.704 58.3911 30.12 57.5751 30.952C56.7591 31.768 56.3511 32.784 56.3511 34C56.3511 35.2 56.7591 36.224 57.5751 37.072C58.3911 37.888 59.3991 38.296 60.5991 38.296Z" fill="white"/>
<path d="M31.3715 138H29.2855L27.3115 134.598H25.8415V138H23.9095V128.2H27.8295C28.7348 128.2 29.5048 128.517 30.1395 129.152C30.7742 129.787 31.0915 130.552 31.0915 131.448C31.0915 132.055 30.9188 132.619 30.5735 133.142C30.2282 133.655 29.7708 134.043 29.2015 134.304L31.3715 138ZM27.8295 130.006H25.8415V132.904H27.8295C28.1935 132.904 28.5062 132.764 28.7675 132.484C29.0288 132.195 29.1595 131.849 29.1595 131.448C29.1595 131.047 29.0288 130.706 28.7675 130.426C28.5062 130.146 28.1935 130.006 27.8295 130.006ZM36.0948 138.196C35.0028 138.196 34.1068 137.888 33.4068 137.272C32.7068 136.656 32.3568 135.83 32.3568 134.794V128.2H34.2748V134.64C34.2748 135.163 34.4241 135.573 34.7228 135.872C35.0308 136.161 35.4881 136.306 36.0948 136.306C36.7014 136.306 37.1541 136.161 37.4528 135.872C37.7608 135.573 37.9148 135.163 37.9148 134.64V128.2H39.8468V134.794C39.8468 135.83 39.4968 136.656 38.7968 137.272C38.0968 137.888 37.1961 138.196 36.0948 138.196ZM47.5092 132.918C48.3679 133.413 48.7972 134.159 48.7972 135.158C48.7972 135.989 48.5032 136.67 47.9152 137.202C47.3272 137.734 46.6039 138 45.7452 138H41.5872V128.2H45.4512C46.2819 128.2 46.9866 128.461 47.5652 128.984C48.1439 129.507 48.4332 130.165 48.4332 130.958C48.4332 131.77 48.1252 132.423 47.5092 132.918ZM45.4512 130.006H43.5192V132.162H45.4512C45.7499 132.162 45.9972 132.059 46.1932 131.854C46.3986 131.649 46.5012 131.392 46.5012 131.084C46.5012 130.776 46.4032 130.519 46.2072 130.314C46.0112 130.109 45.7592 130.006 45.4512 130.006ZM43.5192 136.194H45.7452C46.0719 136.194 46.3426 136.087 46.5572 135.872C46.7719 135.648 46.8792 135.368 46.8792 135.032C46.8792 134.705 46.7719 134.435 46.5572 134.22C46.3426 133.996 46.0719 133.884 45.7452 133.884H43.5192V136.194Z" fill="white"/>
<defs>
<linearGradient id="paint0_linear_149_202" x1="1.84024" y1="130.056" x2="272.455" y2="83.0135" gradientUnits="userSpaceOnUse">
<stop stop-color="#380036"/>
<stop offset="1" stop-color="#0CBABA"/>
</linearGradient>
</defs>
</svg>
