<svg width="1200" height="160" viewBox="0 0 1200 160" fill="none" xmlns="http://www.w3.org/2000/svg">
<rect width="282" height="160" rx="15" fill="url(#paint0_linear_149_120)"/>
<path d="M31.712 40H29.192L23.192 23.2H25.592L30.464 37.216L35.312 23.2H37.736L31.712 40ZM40.0775 25.816C39.6775 25.816 39.3415 25.68 39.0695 25.408C38.7975 25.136 38.6615 24.808 38.6615 24.424C38.6615 24.04 38.7975 23.712 39.0695 23.44C39.3415 23.152 39.6775 23.008 40.0775 23.008C40.4615 23.008 40.7895 23.152 41.0615 23.44C41.3335 23.712 41.4695 24.04 41.4695 24.424C41.4695 24.808 41.3335 25.136 41.0615 25.408C40.7895 25.68 40.4615 25.816 40.0775 25.816ZM41.1095 40H39.0215V28H41.1095V40ZM46.0715 31.24C46.0715 32.008 46.8635 32.608 48.4475 33.04C49.0395 33.168 49.5355 33.304 49.9355 33.448C50.3515 33.576 50.7995 33.776 51.2795 34.048C51.7755 34.32 52.1515 34.68 52.4075 35.128C52.6635 35.576 52.7915 36.104 52.7915 36.712C52.7915 37.8 52.3675 38.672 51.5195 39.328C50.6715 39.984 49.5995 40.312 48.3035 40.312C47.1515 40.312 46.1515 40.064 45.3035 39.568C44.4715 39.056 43.8795 38.368 43.5275 37.504L45.3275 36.472C45.5195 37.048 45.8795 37.504 46.4075 37.84C46.9355 38.176 47.5675 38.344 48.3035 38.344C49.0235 38.344 49.5995 38.208 50.0315 37.936C50.4635 37.664 50.6795 37.256 50.6795 36.712C50.6795 35.896 49.8875 35.304 48.3035 34.936C47.7755 34.792 47.3755 34.68 47.1035 34.6C46.8315 34.52 46.4555 34.376 45.9755 34.168C45.5115 33.96 45.1595 33.744 44.9195 33.52C44.6795 33.28 44.4555 32.968 44.2475 32.584C44.0555 32.184 43.9595 31.744 43.9595 31.264C43.9595 30.224 44.3595 29.368 45.1595 28.696C45.9755 28.024 46.9915 27.688 48.2075 27.688C49.1835 27.688 50.0475 27.912 50.7995 28.36C51.5675 28.792 52.1435 29.4 52.5275 30.184L50.7755 31.168C50.3435 30.144 49.4875 29.632 48.2075 29.632C47.5995 29.632 47.0875 29.776 46.6715 30.064C46.2715 30.352 46.0715 30.744 46.0715 31.24ZM64.8716 30.064V28H66.9596V40H64.8716V37.936C63.8476 39.52 62.3356 40.312 60.3356 40.312C58.6396 40.312 57.2076 39.704 56.0396 38.488C54.8556 37.256 54.2636 35.76 54.2636 34C54.2636 32.256 54.8556 30.768 56.0396 29.536C57.2236 28.304 58.6556 27.688 60.3356 27.688C62.3356 27.688 63.8476 28.48 64.8716 30.064ZM60.5996 38.296C61.8156 38.296 62.8316 37.888 63.6476 37.072C64.4636 36.224 64.8716 35.2 64.8716 34C64.8716 32.784 64.4636 31.768 63.6476 30.952C62.8316 30.12 61.8156 29.704 60.5996 29.704C59.3996 29.704 58.3916 30.12 57.5756 30.952C56.7596 31.768 56.3516 32.784 56.3516 34C56.3516 35.2 56.7596 36.224 57.5756 37.072C58.3916 37.888 59.3996 38.296 60.5996 38.296Z" fill="white"/>
<path d="M31.372 138H29.286L27.312 134.598H25.842V138H23.91V128.2H27.83C28.7353 128.2 29.5053 128.517 30.14 129.152C30.7747 129.787 31.092 130.552 31.092 131.448C31.092 132.055 30.9193 132.619 30.574 133.142C30.2287 133.655 29.7713 134.043 29.202 134.304L31.372 138ZM27.83 130.006H25.842V132.904H27.83C28.194 132.904 28.5067 132.764 28.768 132.484C29.0293 132.195 29.16 131.849 29.16 131.448C29.16 131.047 29.0293 130.706 28.768 130.426C28.5067 130.146 28.194 130.006 27.83 130.006ZM36.0953 138.196C35.0033 138.196 34.1073 137.888 33.4073 137.272C32.7073 136.656 32.3573 135.83 32.3573 134.794V128.2H34.2753V134.64C34.2753 135.163 34.4246 135.573 34.7233 135.872C35.0313 136.161 35.4886 136.306 36.0953 136.306C36.7019 136.306 37.1546 136.161 37.4533 135.872C37.7613 135.573 37.9153 135.163 37.9153 134.64V128.2H39.8473V134.794C39.8473 135.83 39.4973 136.656 38.7973 137.272C38.0973 137.888 37.1966 138.196 36.0953 138.196ZM47.5097 132.918C48.3684 133.413 48.7977 134.159 48.7977 135.158C48.7977 135.989 48.5037 136.67 47.9157 137.202C47.3277 137.734 46.6044 138 45.7457 138H41.5877V128.2H45.4517C46.2824 128.2 46.9871 128.461 47.5657 128.984C48.1444 129.507 48.4337 130.165 48.4337 130.958C48.4337 131.77 48.1257 132.423 47.5097 132.918ZM45.4517 130.006H43.5197V132.162H45.4517C45.7504 132.162 45.9977 132.059 46.1937 131.854C46.3991 131.649 46.5017 131.392 46.5017 131.084C46.5017 130.776 46.4037 130.519 46.2077 130.314C46.0117 130.109 45.7597 130.006 45.4517 130.006ZM43.5197 136.194H45.7457C46.0724 136.194 46.3431 136.087 46.5577 135.872C46.7724 135.648 46.8797 135.368 46.8797 135.032C46.8797 134.705 46.7724 134.435 46.5577 134.22C46.3431 133.996 46.0724 133.884 45.7457 133.884H43.5197V136.194Z" fill="white"/>
<rect x="306" width="282" height="160" rx="15" fill="url(#paint1_linear_149_120)"/>
<path d="M337.712 40H335.192L329.192 23.2H331.592L336.464 37.216L341.312 23.2H343.736L337.712 40ZM346.078 25.816C345.678 25.816 345.342 25.68 345.07 25.408C344.798 25.136 344.662 24.808 344.662 24.424C344.662 24.04 344.798 23.712 345.07 23.44C345.342 23.152 345.678 23.008 346.078 23.008C346.462 23.008 346.79 23.152 347.062 23.44C347.334 23.712 347.47 24.04 347.47 24.424C347.47 24.808 347.334 25.136 347.062 25.408C346.79 25.68 346.462 25.816 346.078 25.816ZM347.11 40H345.021V28H347.11V40ZM352.072 31.24C352.072 32.008 352.864 32.608 354.448 33.04C355.04 33.168 355.536 33.304 355.936 33.448C356.352 33.576 356.8 33.776 357.28 34.048C357.776 34.32 358.152 34.68 358.408 35.128C358.664 35.576 358.792 36.104 358.792 36.712C358.792 37.8 358.368 38.672 357.52 39.328C356.672 39.984 355.6 40.312 354.304 40.312C353.152 40.312 352.152 40.064 351.304 39.568C350.472 39.056 349.88 38.368 349.528 37.504L351.328 36.472C351.52 37.048 351.88 37.504 352.408 37.84C352.936 38.176 353.568 38.344 354.304 38.344C355.024 38.344 355.6 38.208 356.032 37.936C356.464 37.664 356.68 37.256 356.68 36.712C356.68 35.896 355.888 35.304 354.304 34.936C353.776 34.792 353.376 34.68 353.104 34.6C352.832 34.52 352.456 34.376 351.976 34.168C351.512 33.96 351.16 33.744 350.92 33.52C350.68 33.28 350.456 32.968 350.248 32.584C350.056 32.184 349.96 31.744 349.96 31.264C349.96 30.224 350.36 29.368 351.16 28.696C351.976 28.024 352.992 27.688 354.208 27.688C355.184 27.688 356.048 27.912 356.8 28.36C357.568 28.792 358.144 29.4 358.528 30.184L356.776 31.168C356.344 30.144 355.488 29.632 354.208 29.632C353.6 29.632 353.088 29.776 352.672 30.064C352.272 30.352 352.072 30.744 352.072 31.24ZM370.872 30.064V28H372.96V40H370.872V37.936C369.848 39.52 368.336 40.312 366.336 40.312C364.64 40.312 363.208 39.704 362.04 38.488C360.856 37.256 360.264 35.76 360.264 34C360.264 32.256 360.856 30.768 362.04 29.536C363.224 28.304 364.656 27.688 366.336 27.688C368.336 27.688 369.848 28.48 370.872 30.064ZM366.6 38.296C367.816 38.296 368.832 37.888 369.648 37.072C370.464 36.224 370.872 35.2 370.872 34C370.872 32.784 370.464 31.768 369.648 30.952C368.832 30.12 367.816 29.704 366.6 29.704C365.4 29.704 364.392 30.12 363.576 30.952C362.76 31.768 362.352 32.784 362.352 34C362.352 35.2 362.76 36.224 363.576 37.072C364.392 37.888 365.4 38.296 366.6 38.296Z" fill="white"/>
<path d="M337.372 138H335.286L333.312 134.598H331.842V138H329.91V128.2H333.83C334.735 128.2 335.505 128.517 336.14 129.152C336.775 129.787 337.092 130.552 337.092 131.448C337.092 132.055 336.919 132.619 336.574 133.142C336.229 133.655 335.771 134.043 335.202 134.304L337.372 138ZM333.83 130.006H331.842V132.904H333.83C334.194 132.904 334.507 132.764 334.768 132.484C335.029 132.195 335.16 131.849 335.16 131.448C335.16 131.047 335.029 130.706 334.768 130.426C334.507 130.146 334.194 130.006 333.83 130.006ZM342.095 138.196C341.003 138.196 340.107 137.888 339.407 137.272C338.707 136.656 338.357 135.83 338.357 134.794V128.2H340.275V134.64C340.275 135.163 340.425 135.573 340.723 135.872C341.031 136.161 341.489 136.306 342.095 136.306C342.702 136.306 343.155 136.161 343.453 135.872C343.761 135.573 343.915 135.163 343.915 134.64V128.2H345.847V134.794C345.847 135.83 345.497 136.656 344.797 137.272C344.097 137.888 343.197 138.196 342.095 138.196ZM353.51 132.918C354.368 133.413 354.798 134.159 354.798 135.158C354.798 135.989 354.504 136.67 353.916 137.202C353.328 137.734 352.604 138 351.746 138H347.588V128.2H351.452C352.282 128.2 352.987 128.461 353.566 128.984C354.144 129.507 354.434 130.165 354.434 130.958C354.434 131.77 354.126 132.423 353.51 132.918ZM351.452 130.006H349.52V132.162H351.452C351.75 132.162 351.998 132.059 352.194 131.854C352.399 131.649 352.502 131.392 352.502 131.084C352.502 130.776 352.404 130.519 352.208 130.314C352.012 130.109 351.76 130.006 351.452 130.006ZM349.52 136.194H351.746C352.072 136.194 352.343 136.087 352.558 135.872C352.772 135.648 352.88 135.368 352.88 135.032C352.88 134.705 352.772 134.435 352.558 134.22C352.343 133.996 352.072 133.884 351.746 133.884H349.52V136.194Z" fill="white"/>
<rect x="612" width="282" height="160" rx="15" fill="url(#paint2_linear_149_120)"/>
<path d="M643.712 40H641.192L635.192 23.2H637.592L642.464 37.216L647.312 23.2H649.736L643.712 40ZM652.078 25.816C651.678 25.816 651.342 25.68 651.07 25.408C650.798 25.136 650.662 24.808 650.662 24.424C650.662 24.04 650.798 23.712 651.07 23.44C651.342 23.152 651.678 23.008 652.078 23.008C652.462 23.008 652.79 23.152 653.062 23.44C653.334 23.712 653.47 24.04 653.47 24.424C653.47 24.808 653.334 25.136 653.062 25.408C652.79 25.68 652.462 25.816 652.078 25.816ZM653.11 40H651.021V28H653.11V40ZM658.072 31.24C658.072 32.008 658.864 32.608 660.448 33.04C661.04 33.168 661.536 33.304 661.936 33.448C662.352 33.576 662.8 33.776 663.28 34.048C663.776 34.32 664.152 34.68 664.408 35.128C664.664 35.576 664.792 36.104 664.792 36.712C664.792 37.8 664.368 38.672 663.52 39.328C662.672 39.984 661.6 40.312 660.304 40.312C659.152 40.312 658.152 40.064 657.304 39.568C656.472 39.056 655.88 38.368 655.528 37.504L657.328 36.472C657.52 37.048 657.88 37.504 658.408 37.84C658.936 38.176 659.568 38.344 660.304 38.344C661.024 38.344 661.6 38.208 662.032 37.936C662.464 37.664 662.68 37.256 662.68 36.712C662.68 35.896 661.888 35.304 660.304 34.936C659.776 34.792 659.376 34.68 659.104 34.6C658.832 34.52 658.456 34.376 657.976 34.168C657.512 33.96 657.16 33.744 656.92 33.52C656.68 33.28 656.456 32.968 656.248 32.584C656.056 32.184 655.96 31.744 655.96 31.264C655.96 30.224 656.36 29.368 657.16 28.696C657.976 28.024 658.992 27.688 660.208 27.688C661.184 27.688 662.048 27.912 662.8 28.36C663.568 28.792 664.144 29.4 664.528 30.184L662.776 31.168C662.344 30.144 661.488 29.632 660.208 29.632C659.6 29.632 659.088 29.776 658.672 30.064C658.272 30.352 658.072 30.744 658.072 31.24ZM676.872 30.064V28H678.96V40H676.872V37.936C675.848 39.52 674.336 40.312 672.336 40.312C670.64 40.312 669.208 39.704 668.04 38.488C666.856 37.256 666.264 35.76 666.264 34C666.264 32.256 666.856 30.768 668.04 29.536C669.224 28.304 670.656 27.688 672.336 27.688C674.336 27.688 675.848 28.48 676.872 30.064ZM672.6 38.296C673.816 38.296 674.832 37.888 675.648 37.072C676.464 36.224 676.872 35.2 676.872 34C676.872 32.784 676.464 31.768 675.648 30.952C674.832 30.12 673.816 29.704 672.6 29.704C671.4 29.704 670.392 30.12 669.576 30.952C668.76 31.768 668.352 32.784 668.352 34C668.352 35.2 668.76 36.224 669.576 37.072C670.392 37.888 671.4 38.296 672.6 38.296Z" fill="white"/>
<path d="M643.372 138H641.286L639.312 134.598H637.842V138H635.91V128.2H639.83C640.735 128.2 641.505 128.517 642.14 129.152C642.775 129.787 643.092 130.552 643.092 131.448C643.092 132.055 642.919 132.619 642.574 133.142C642.229 133.655 641.771 134.043 641.202 134.304L643.372 138ZM639.83 130.006H637.842V132.904H639.83C640.194 132.904 640.507 132.764 640.768 132.484C641.029 132.195 641.16 131.849 641.16 131.448C641.16 131.047 641.029 130.706 640.768 130.426C640.507 130.146 640.194 130.006 639.83 130.006ZM648.095 138.196C647.003 138.196 646.107 137.888 645.407 137.272C644.707 136.656 644.357 135.83 644.357 134.794V128.2H646.275V134.64C646.275 135.163 646.425 135.573 646.723 135.872C647.031 136.161 647.489 136.306 648.095 136.306C648.702 136.306 649.155 136.161 649.453 135.872C649.761 135.573 649.915 135.163 649.915 134.64V128.2H651.847V134.794C651.847 135.83 651.497 136.656 650.797 137.272C650.097 137.888 649.197 138.196 648.095 138.196ZM659.51 132.918C660.368 133.413 660.798 134.159 660.798 135.158C660.798 135.989 660.504 136.67 659.916 137.202C659.328 137.734 658.604 138 657.746 138H653.588V128.2H657.452C658.282 128.2 658.987 128.461 659.566 128.984C660.144 129.507 660.434 130.165 660.434 130.958C660.434 131.77 660.126 132.423 659.51 132.918ZM657.452 130.006H655.52V132.162H657.452C657.75 132.162 657.998 132.059 658.194 131.854C658.399 131.649 658.502 131.392 658.502 131.084C658.502 130.776 658.404 130.519 658.208 130.314C658.012 130.109 657.76 130.006 657.452 130.006ZM655.52 136.194H657.746C658.072 136.194 658.343 136.087 658.558 135.872C658.772 135.648 658.88 135.368 658.88 135.032C658.88 134.705 658.772 134.435 658.558 134.22C658.343 133.996 658.072 133.884 657.746 133.884H655.52V136.194Z" fill="white"/>
<rect x="918" width="282" height="160" rx="15" fill="url(#paint3_linear_149_120)"/>
<path d="M949.712 40H947.192L941.192 23.2H943.592L948.464 37.216L953.312 23.2H955.736L949.712 40ZM958.078 25.816C957.678 25.816 957.342 25.68 957.07 25.408C956.798 25.136 956.662 24.808 956.662 24.424C956.662 24.04 956.798 23.712 957.07 23.44C957.342 23.152 957.678 23.008 958.078 23.008C958.462 23.008 958.79 23.152 959.062 23.44C959.334 23.712 959.47 24.04 959.47 24.424C959.47 24.808 959.334 25.136 959.062 25.408C958.79 25.68 958.462 25.816 958.078 25.816ZM959.11 40H957.021V28H959.11V40ZM964.072 31.24C964.072 32.008 964.864 32.608 966.448 33.04C967.04 33.168 967.536 33.304 967.936 33.448C968.352 33.576 968.8 33.776 969.28 34.048C969.776 34.32 970.152 34.68 970.408 35.128C970.664 35.576 970.792 36.104 970.792 36.712C970.792 37.8 970.368 38.672 969.52 39.328C968.672 39.984 967.6 40.312 966.304 40.312C965.152 40.312 964.152 40.064 963.304 39.568C962.472 39.056 961.88 38.368 961.528 37.504L963.328 36.472C963.52 37.048 963.88 37.504 964.408 37.84C964.936 38.176 965.568 38.344 966.304 38.344C967.024 38.344 967.6 38.208 968.032 37.936C968.464 37.664 968.68 37.256 968.68 36.712C968.68 35.896 967.888 35.304 966.304 34.936C965.776 34.792 965.376 34.68 965.104 34.6C964.832 34.52 964.456 34.376 963.976 34.168C963.512 33.96 963.16 33.744 962.92 33.52C962.68 33.28 962.456 32.968 962.248 32.584C962.056 32.184 961.96 31.744 961.96 31.264C961.96 30.224 962.36 29.368 963.16 28.696C963.976 28.024 964.992 27.688 966.208 27.688C967.184 27.688 968.048 27.912 968.8 28.36C969.568 28.792 970.144 29.4 970.528 30.184L968.776 31.168C968.344 30.144 967.488 29.632 966.208 29.632C965.6 29.632 965.088 29.776 964.672 30.064C964.272 30.352 964.072 30.744 964.072 31.24ZM982.872 30.064V28H984.96V40H982.872V37.936C981.848 39.52 980.336 40.312 978.336 40.312C976.64 40.312 975.208 39.704 974.04 38.488C972.856 37.256 972.264 35.76 972.264 34C972.264 32.256 972.856 30.768 974.04 29.536C975.224 28.304 976.656 27.688 978.336 27.688C980.336 27.688 981.848 28.48 982.872 30.064ZM978.6 38.296C979.816 38.296 980.832 37.888 981.648 37.072C982.464 36.224 982.872 35.2 982.872 34C982.872 32.784 982.464 31.768 981.648 30.952C980.832 30.12 979.816 29.704 978.6 29.704C977.4 29.704 976.392 30.12 975.576 30.952C974.76 31.768 974.352 32.784 974.352 34C974.352 35.2 974.76 36.224 975.576 37.072C976.392 37.888 977.4 38.296 978.6 38.296Z" fill="white"/>
<path d="M949.372 138H947.286L945.312 134.598H943.842V138H941.91V128.2H945.83C946.735 128.2 947.505 128.517 948.14 129.152C948.775 129.787 949.092 130.552 949.092 131.448C949.092 132.055 948.919 132.619 948.574 133.142C948.229 133.655 947.771 134.043 947.202 134.304L949.372 138ZM945.83 130.006H943.842V132.904H945.83C946.194 132.904 946.507 132.764 946.768 132.484C947.029 132.195 947.16 131.849 947.16 131.448C947.16 131.047 947.029 130.706 946.768 130.426C946.507 130.146 946.194 130.006 945.83 130.006ZM954.095 138.196C953.003 138.196 952.107 137.888 951.407 137.272C950.707 136.656 950.357 135.83 950.357 134.794V128.2H952.275V134.64C952.275 135.163 952.425 135.573 952.723 135.872C953.031 136.161 953.489 136.306 954.095 136.306C954.702 136.306 955.155 136.161 955.453 135.872C955.761 135.573 955.915 135.163 955.915 134.64V128.2H957.847V134.794C957.847 135.83 957.497 136.656 956.797 137.272C956.097 137.888 955.197 138.196 954.095 138.196ZM965.51 132.918C966.368 133.413 966.798 134.159 966.798 135.158C966.798 135.989 966.504 136.67 965.916 137.202C965.328 137.734 964.604 138 963.746 138H959.588V128.2H963.452C964.282 128.2 964.987 128.461 965.566 128.984C966.144 129.507 966.434 130.165 966.434 130.958C966.434 131.77 966.126 132.423 965.51 132.918ZM963.452 130.006H961.52V132.162H963.452C963.75 132.162 963.998 132.059 964.194 131.854C964.399 131.649 964.502 131.392 964.502 131.084C964.502 130.776 964.404 130.519 964.208 130.314C964.012 130.109 963.76 130.006 963.452 130.006ZM961.52 136.194H963.746C964.072 136.194 964.343 136.087 964.558 135.872C964.772 135.648 964.88 135.368 964.88 135.032C964.88 134.705 964.772 134.435 964.558 134.22C964.343 133.996 964.072 133.884 963.746 133.884H961.52V136.194Z" fill="white"/>
<defs>
<linearGradient id="paint0_linear_149_120" x1="1.84073" y1="130.056" x2="272.456" y2="83.0135" gradientUnits="userSpaceOnUse">
<stop stop-color="#D7816A"/>
<stop offset="1" stop-color="#BD4F6C"/>
</linearGradient>
<linearGradient id="paint1_linear_149_120" x1="307.841" y1="130.056" x2="578.456" y2="83.0135" gradientUnits="userSpaceOnUse">
<stop stop-color="#5F0A87"/>
<stop offset="1" stop-color="#A4508B"/>
</linearGradient>
<linearGradient id="paint2_linear_149_120" x1="613.841" y1="130.056" x2="884.456" y2="83.0135" gradientUnits="userSpaceOnUse">
<stop stop-color="#20BF55"/>
<stop offset="1" stop-color="#01BAEF"/>
</linearGradient>
<linearGradient id="paint3_linear_149_120" x1="919.841" y1="130.056" x2="1190.46" y2="83.0135" gradientUnits="userSpaceOnUse">
<stop stop-color="#380036"/>
<stop offset="1" stop-color="#0CBABA"/>
</linearGradient>
</defs>
</svg>
